# xmcd
#
# Track frame offsets: 
#        150
#        43691
#        57424
#        70590
#        83675
#        101539
#        115650
#        126980
#        143278
#        161844
#        173228
#        183613
#        195618
#        218936
#        232534
#        247617
#        260000
#        271600
#        284145
#        295448
#        307831
#
# Disc length: 4293 seconds
#
# Revision: 2
# Processed by: cddbd v1.4PL0 Copyright (c) Steve Scherf et al.
# Submitted via: ExactAudioCopy v0.95a3
#
DISCID=2910c315
DTITLE=Various Artist - Boot Scootin' Country Disc 12
DYEAR=1995
DGENRE=Country
TTITLE0=Isaac Peyton Sweat - Cotton-Eyed Joe and Schottische [12" Dance 
TTITLE0=Version]
TTITLE1=George Strait - Round About Way
TTITLE2=Rick Trevino - Life Can Turn On A Dime
TTITLE3=Sawyer Brown - The Race Is On
TTITLE4=Clint Black and Martina McBride - Still Holding On [Martina McBr
TTITLE4=ide Mix]
TTITLE5=Ronnie McDowell - Smokey Places
TTITLE6=Larry Stewart - They Ain't Made Enough Road
TTITLE7=Steve Earle - Hillbilly Highway
TTITLE8=Mark Chesnutt - Texas Is Bigger Than It Used To Be
TTITLE9=George Strait - It's Too Late Now
TTITLE10=Rhett Akins - Every Cowboy's Dream [Single Version]
TTITLE11=Ernest Tubb - Waltz Across Texas
TTITLE12=Rodney Crowell - The Last Waltz
TTITLE13=Mickey Gilley - Don't the Girls All Get Prettier at Closing T
TTITLE13=ime 
TTITLE14=Collin Raye - Little Red Rodeo
TTITLE15=Jimmy Buffett - Why Don't We Get Drunk and Screw
TTITLE16=Isaac Peyton Sweat - Jole Blon
TTITLE17=Bobby Bare - Detroit City
TTITLE18=Waylon Jennings and Willie Nelson - Mammas Don't Let Your Babie
TTITLE18=s Grow Up To Be Cowboys
TTITLE19=Merle Haggard - Okie From Muskogee
TTITLE20=George Strait - Where The Sidewalk Ends
EXTD=
EXTT0=
EXTT1=
EXTT2=
EXTT3=
EXTT4=
EXTT5=
EXTT6=
EXTT7=
EXTT8=
EXTT9=
EXTT10=
EXTT11=
EXTT12=
EXTT13=
EXTT14=
EXTT15=
EXTT16=
EXTT17=
EXTT18=
EXTT19=
EXTT20=
PLAYORDER=
